<svg version="1.1" viewBox="0.0 0.0 960.0 540.0" fill="none" stroke="none" stroke-linecap="square" stroke-miterlimit="10" xmlns:xlink="http://www.w3.org/1999/xlink" xmlns="http://www.w3.org/2000/svg"><clipPath id="g1ce2743a8a7_0_0.0"><path d="m0 0l960.0 0l0 540.0l-960.0 0l0 -540.0z" clip-rule="nonzero"/></clipPath><g clip-path="url(#g1ce2743a8a7_0_0.0)"><path fill="#ffffff" d="m0 0l960.0 0l0 540.0l-960.0 0z" fill-rule="evenodd"/><path fill="#d9ead3" d="m211.68767 260.56955l0 0c0 -8.662598 7.0224304 -15.685028 15.685028 -15.685028l0 0c4.1599426 0 8.14949 1.6525116 11.091003 4.59404c2.941513 2.941513 4.59404 6.931076 4.59404 11.090988l0 0c0 8.662598 -7.0224304 15.685059 -15.685043 15.685059l0 0c-8.662598 0 -15.685028 -7.022461 -15.685028 -15.685059z" fill-rule="evenodd"/><path stroke="#595959" stroke-width="1.0" stroke-linejoin="round" stroke-linecap="butt" d="m211.68767 260.56955l0 0c0 -8.662598 7.0224304 -15.685028 15.685028 -15.685028l0 0c4.1599426 0 8.14949 1.6525116 11.091003 4.59404c2.941513 2.941513 4.59404 6.931076 4.59404 11.090988l0 0c0 8.662598 -7.0224304 15.685059 -15.685043 15.685059l0 0c-8.662598 0 -15.685028 -7.022461 -15.685028 -15.685059z" fill-rule="evenodd"/><path fill="#d9ead3" d="m304.1601 260.56955l0 0c0 -8.662598 7.0224304 -15.685028 15.685059 -15.685028l0 0c4.159912 0 8.149475 1.6525116 11.091003 4.59404c2.9414978 2.941513 4.5940247 6.931076 4.5940247 11.090988l0 0c0 8.662598 -7.0224304 15.685059 -15.685028 15.685059l0 0c-8.662628 0 -15.685059 -7.022461 -15.685059 -15.685059z" fill-rule="evenodd"/><path stroke="#595959" stroke-width="1.0" stroke-linejoin="round" stroke-linecap="butt" d="m304.1601 260.56955l0 0c0 -8.662598 7.0224304 -15.685028 15.685059 -15.685028l0 0c4.159912 0 8.149475 1.6525116 11.091003 4.59404c2.9414978 2.941513 4.5940247 6.931076 4.5940247 11.090988l0 0c0 8.662598 -7.0224304 15.685059 -15.685028 15.685059l0 0c-8.662628 0 -15.685059 -7.022461 -15.685059 -15.685059z" fill-rule="evenodd"/><path fill="#d9ead3" d="m390.09055 260.56955l0 0c0 -8.662598 7.0224304 -15.685028 15.685059 -15.685028l0 0c4.159912 0 8.149475 1.6525116 11.090973 4.59404c2.9415283 2.941513 4.594055 6.931076 4.594055 11.090988l0 0c0 8.662598 -7.0224304 15.685059 -15.685028 15.685059l0 0c-8.662628 0 -15.685059 -7.022461 -15.685059 -15.685059z" fill-rule="evenodd"/><path stroke="#595959" stroke-width="1.0" stroke-linejoin="round" stroke-linecap="butt" d="m390.09055 260.56955l0 0c0 -8.662598 7.0224304 -15.685028 15.685059 -15.685028l0 0c4.159912 0 8.149475 1.6525116 11.090973 4.59404c2.9415283 2.941513 4.594055 6.931076 4.594055 11.090988l0 0c0 8.662598 -7.0224304 15.685059 -15.685028 15.685059l0 0c-8.662628 0 -15.685059 -7.022461 -15.685059 -15.685059z" fill-rule="evenodd"/><path fill="#000000" fill-opacity="0.0" d="m243.05774 260.56955l61.102356 0" fill-rule="evenodd"/><path stroke="#595959" stroke-width="1.0" stroke-linejoin="round" stroke-linecap="butt" d="m243.05774 260.56955l61.102356 0" fill-rule="evenodd"/><path fill="#000000" fill-opacity="0.0" d="m335.53018 260.56955l54.551178 0" fill-rule="evenodd"/><path stroke="#595959" stroke-width="1.0" stroke-linejoin="round" stroke-linecap="butt" d="m335.53018 260.56955l54.551178 0" fill-rule="evenodd"/><path fill="#d9ead3" d="m488.14566 260.56955l0 0c0 -8.662598 7.0224304 -15.685028 15.685059 -15.685028l0 0c4.159912 0 8.149475 1.6525116 11.090973 4.59404c2.9415283 2.941513 4.594055 6.931076 4.594055 11.090988l0 0c0 8.662598 -7.0224 15.685059 -15.685028 15.685059l0 0c-8.662628 0 -15.685059 -7.022461 -15.685059 -15.685059z" fill-rule="evenodd"/><path stroke="#595959" stroke-width="1.0" stroke-linejoin="round" stroke-linecap="butt" d="m488.14566 260.56955l0 0c0 -8.662598 7.0224304 -15.685028 15.685059 -15.685028l0 0c4.159912 0 8.149475 1.6525116 11.090973 4.59404c2.9415283 2.941513 4.594055 6.931076 4.594055 11.090988l0 0c0 8.662598 -7.0224 15.685059 -15.685028 15.685059l0 0c-8.662628 0 -15.685059 -7.022461 -15.685059 -15.685059z" fill-rule="evenodd"/><path fill="#000000" fill-opacity="0.0" d="m421.4685 260.56955l66.677155 0" fill-rule="evenodd"/><path stroke="#595959" stroke-width="1.0" stroke-linejoin="round" stroke-linecap="butt" d="m421.4685 260.56955l66.677155 0" fill-rule="evenodd"/><path fill="#c9daf8" d="m304.1601 323.60892l0 0c0 -8.662598 7.0224304 -15.685028 15.685059 -15.685028l0 0c4.159912 0 8.149475 1.6525269 11.091003 4.5940247c2.9414978 2.9415283 4.5940247 6.9310913 4.5940247 11.091003l0 0c0 8.662628 -7.0224304 15.685059 -15.685028 15.685059l0 0c-8.662628 0 -15.685059 -7.0224304 -15.685059 -15.685059z" fill-rule="evenodd"/><path stroke="#595959" stroke-width="1.0" stroke-linejoin="round" stroke-linecap="butt" d="m304.1601 323.60892l0 0c0 -8.662598 7.0224304 -15.685028 15.685059 -15.685028l0 0c4.159912 0 8.149475 1.6525269 11.091003 4.5940247c2.9414978 2.9415283 4.5940247 6.9310913 4.5940247 11.091003l0 0c0 8.662628 -7.0224304 15.685059 -15.685028 15.685059l0 0c-8.662628 0 -15.685059 -7.0224304 -15.685059 -15.685059z" fill-rule="evenodd"/><path fill="#d9d2e9" d="m488.14566 199.90814l0 0c0 -8.662613 7.0224304 -15.685043 15.685059 -15.685043l0 0c4.159912 0 8.149475 1.6525269 11.090973 4.59404c2.9415283 2.941513 4.594055 6.931061 4.594055 11.091003l0 0c0 8.662598 -7.0224 15.685028 -15.685028 15.685028l0 0c-8.662628 0 -15.685059 -7.0224304 -15.685059 -15.685028z" fill-rule="evenodd"/><path stroke="#595959" stroke-width="1.0" stroke-linejoin="round" stroke-linecap="butt" d="m488.14566 199.90814l0 0c0 -8.662613 7.0224304 -15.685043 15.685059 -15.685043l0 0c4.159912 0 8.149475 1.6525269 11.090973 4.59404c2.9415283 2.941513 4.594055 6.931061 4.594055 11.091003l0 0c0 8.662598 -7.0224 15.685028 -15.685028 15.685028l0 0c-8.662628 0 -15.685059 -7.0224304 -15.685059 -15.685028z" fill-rule="evenodd"/><path fill="#000000" fill-opacity="0.0" d="m243.05774 260.56955c15.275604 0 22.913391 15.763794 30.551178 31.527557c7.637787 15.763794 15.275604 31.527557 30.551178 31.527557" fill-rule="evenodd"/><path stroke="#595959" stroke-width="1.0" stroke-linejoin="round" stroke-linecap="butt" d="m243.05774 260.56955c15.275604 0 22.913391 15.763794 30.551178 31.527557c7.637787 15.763794 15.275604 31.527557 30.551178 31.527557" fill-rule="evenodd"/><path fill="#000000" fill-opacity="0.0" d="m421.46063 260.56955c16.671295 0 25.007935 -15.165344 33.34259 -30.330704c8.334625 -15.1653595 16.667267 -30.330704 33.334564 -30.330704" fill-rule="evenodd"/><path stroke="#595959" stroke-width="1.0" stroke-linejoin="round" stroke-linecap="butt" d="m421.46063 260.56955c16.671295 0 25.007935 -15.165344 33.34259 -30.330704c8.334625 -15.1653595 16.667267 -30.330704 33.334564 -30.330704" fill-rule="evenodd"/><path fill="#d9d2e9" d="m567.1588 199.90814l0 0c0 -8.662613 7.0224 -15.685043 15.684998 -15.685043l0 0c4.159973 0 8.149475 1.6525269 11.091003 4.59404c2.9415283 2.941513 4.594055 6.931061 4.594055 11.091003l0 0c0 8.662598 -7.0224 15.685028 -15.685059 15.685028l0 0c-8.662598 0 -15.684998 -7.0224304 -15.684998 -15.685028z" fill-rule="evenodd"/><path stroke="#595959" stroke-width="1.0" stroke-linejoin="round" stroke-linecap="butt" d="m567.1588 199.90814l0 0c0 -8.662613 7.0224 -15.685043 15.684998 -15.685043l0 0c4.159973 0 8.149475 1.6525269 11.091003 4.59404c2.9415283 2.941513 4.594055 6.931061 4.594055 11.091003l0 0c0 8.662598 -7.0224 15.685028 -15.685059 15.685028l0 0c-8.662598 0 -15.684998 -7.0224304 -15.684998 -15.685028z" fill-rule="evenodd"/><path fill="#d9d2e9" d="m641.6811 199.90814l0 0c0 -8.662613 7.022461 -15.685043 15.685059 -15.685043l0 0c4.159912 0 8.149475 1.6525269 11.091003 4.59404c2.9415283 2.941513 4.594055 6.931061 4.594055 11.091003l0 0c0 8.662598 -7.022461 15.685028 -15.685059 15.685028l0 0c-8.662598 0 -15.685059 -7.0224304 -15.685059 -15.685028z" fill-rule="evenodd"/><path stroke="#595959" stroke-width="1.0" stroke-linejoin="round" stroke-linecap="butt" d="m641.6811 199.90814l0 0c0 -8.662613 7.022461 -15.685043 15.685059 -15.685043l0 0c4.159912 0 8.149475 1.6525269 11.091003 4.59404c2.9415283 2.941513 4.594055 6.931061 4.594055 11.091003l0 0c0 8.662598 -7.022461 15.685028 -15.685059 15.685028l0 0c-8.662598 0 -15.685059 -7.0224304 -15.685059 -15.685028z" fill-rule="evenodd"/><path fill="#000000" fill-opacity="0.0" d="m519.51575 199.90814l47.653564 0" fill-rule="evenodd"/><path stroke="#595959" stroke-width="1.0" stroke-linejoin="round" stroke-linecap="butt" d="m519.51575 199.90814l47.653564 0" fill-rule="evenodd"/><path fill="#000000" fill-opacity="0.0" d="m598.5289 199.90814l43.149597 0" fill-rule="evenodd"/><path stroke="#595959" stroke-width="1.0" stroke-linejoin="round" stroke-linecap="butt" d="m598.5289 199.90814l43.149597 0" fill-rule="evenodd"/><path fill="#000000" fill-opacity="0.0" d="m520.45667 239.14961l79.77954 0l0 42.01573l-79.77954 0z" fill-rule="evenodd"/><path fill="#000000" d="m530.69104 266.0696l0 -9.671875l1.46875 0l0 1.359375q0.453125 -0.71875 1.203125 -1.140625q0.765625 -0.4375 1.71875 -0.4375q1.078125 0 1.765625 0.453125q0.6875 0.4375 0.96875 1.234375q1.15625 -1.6875 2.984375 -1.6875q1.453125 0 2.21875 0.796875q0.78125 0.796875 0.78125 2.453125l0 6.640625l-1.640625 0l0 -6.09375q0 -0.984375 -0.15625 -1.40625q-0.15625 -0.4375 -0.578125 -0.703125q-0.421875 -0.265625 -0.984375 -0.265625q-1.015625 0 -1.6875 0.6875q-0.671875 0.671875 -0.671875 2.15625l0 5.625l-1.640625 0l0 -6.28125q0 -1.09375 -0.40625 -1.640625q-0.40625 -0.546875 -1.3125 -0.546875q-0.6875 0 -1.28125 0.359375q-0.59375 0.359375 -0.859375 1.0625q-0.25 0.703125 -0.25 2.03125l0 5.015625l-1.640625 0zm21.853333 -1.1875q-0.921875 0.765625 -1.765625 1.09375q-0.828125 0.3125 -1.796875 0.3125q-1.59375 0 -2.453125 -0.78125q-0.859375 -0.78125 -0.859375 -1.984375q0 -0.71875 0.328125 -1.296875q0.328125 -0.59375 0.84375 -0.9375q0.53125 -0.359375 1.1875 -0.546875q0.46875 -0.125 1.453125 -0.25q1.984375 -0.234375 2.921875 -0.5625q0.015625 -0.34375 0.015625 -0.421875q0 -1.0 -0.46875 -1.421875q-0.625 -0.546875 -1.875 -0.546875q-1.15625 0 -1.703125 0.40625q-0.546875 0.40625 -0.8125 1.421875l-1.609375 -0.21875q0.21875 -1.015625 0.71875 -1.640625q0.5 -0.640625 1.453125 -0.984375q0.953125 -0.34375 2.1875 -0.34375q1.25 0 2.015625 0.296875q0.78125 0.28125 1.140625 0.734375q0.375 0.4375 0.515625 1.109375q0.078125 0.421875 0.078125 1.515625l0 2.1875q0 2.28125 0.109375 2.890625q0.109375 0.59375 0.40625 1.15625l-1.703125 0q-0.265625 -0.515625 -0.328125 -1.1875zm-0.140625 -3.671875q-0.890625 0.375 -2.671875 0.625q-1.015625 0.140625 -1.4375 0.328125q-0.421875 0.1875 -0.65625 0.53125q-0.21875 0.34375 -0.21875 0.78125q0 0.65625 0.5 1.09375q0.5 0.4375 1.453125 0.4375q0.9375 0 1.671875 -0.40625q0.75 -0.421875 1.09375 -1.140625q0.265625 -0.5625 0.265625 -1.640625l0 -0.609375zm3.5476074 1.96875l1.625 -0.25q0.125 0.96875 0.75 1.5q0.625 0.515625 1.75 0.515625q1.125 0 1.671875 -0.453125q0.546875 -0.46875 0.546875 -1.09375q0 -0.546875 -0.484375 -0.875q-0.328125 -0.21875 -1.671875 -0.546875q-1.8125 -0.46875 -2.515625 -0.796875q-0.6875 -0.328125 -1.046875 -0.90625q-0.359375 -0.59375 -0.359375 -1.3125q0 -0.640625 0.296875 -1.1875q0.296875 -0.5625 0.8125 -0.921875q0.375 -0.28125 1.03125 -0.46875q0.671875 -0.203125 1.421875 -0.203125q1.140625 0 2.0 0.328125q0.859375 0.328125 1.265625 0.890625q0.421875 0.5625 0.578125 1.5l-1.609375 0.21875q-0.109375 -0.75 -0.640625 -1.171875q-0.515625 -0.421875 -1.46875 -0.421875q-1.140625 0 -1.625 0.375q-0.46875 0.375 -0.46875 0.875q0 0.3125 0.1875 0.578125q0.203125 0.265625 0.640625 0.4375q0.234375 0.09375 1.4375 0.421875q1.75 0.453125 2.4375 0.75q0.6875 0.296875 1.078125 0.859375q0.390625 0.5625 0.390625 1.40625q0 0.828125 -0.484375 1.546875q-0.46875 0.71875 -1.375 1.125q-0.90625 0.390625 -2.046875 0.390625q-1.875 0 -2.875 -0.78125q-0.984375 -0.78125 -1.25 -2.328125zm13.5625 1.421875l0.234375 1.453125q-0.6875 0.140625 -1.234375 0.140625q-0.890625 0 -1.390625 -0.28125q-0.484375 -0.28125 -0.6875 -0.734375q-0.203125 -0.46875 -0.203125 -1.9375l0 -5.578125l-1.203125 0l0 -1.265625l1.203125 0l0 -2.390625l1.625 -0.984375l0 3.375l1.65625 0l0 1.265625l-1.65625 0l0 5.671875q0 0.6875 0.078125 0.890625q0.09375 0.203125 0.28125 0.328125q0.203125 0.109375 0.578125 0.109375q0.265625 0 0.71875 -0.0625zm8.230164 -1.640625l1.6875 0.203125q-0.40625 1.484375 -1.484375 2.3125q-1.078125 0.8125 -2.765625 0.8125q-2.125 0 -3.375 -1.296875q-1.234375 -1.3125 -1.234375 -3.671875q0 -2.453125 1.25 -3.796875q1.265625 -1.34375 3.265625 -1.34375q1.9375 0 3.15625 1.328125q1.234375 1.3125 1.234375 3.703125q0 0.15625 0 0.4375l-7.21875 0q0.09375 1.59375 0.90625 2.453125q0.8125 0.84375 2.015625 0.84375q0.90625 0 1.546875 -0.46875q0.640625 -0.484375 1.015625 -1.515625zm-5.390625 -2.65625l5.40625 0q-0.109375 -1.21875 -0.625 -1.828125q-0.78125 -0.953125 -2.03125 -0.953125q-1.125 0 -1.90625 0.765625q-0.765625 0.75 -0.84375 2.015625zm9.125732 5.765625l0 -9.671875l1.46875 0l0 1.46875q0.5625 -1.03125 1.03125 -1.359375q0.484375 -0.328125 1.0625 -0.328125q0.828125 0 1.6875 0.53125l-0.5625 1.515625q-0.609375 -0.359375 -1.203125 -0.359375q-0.546875 0 -0.96875 0.328125q-0.421875 0.328125 -0.609375 0.890625q-0.28125 0.875 -0.28125 1.921875l0 5.0625l-1.625 0z" fill-rule="nonzero"/><path fill="#000000" fill-opacity="0.0" d="m341.69028 302.60104l79.77954 0l0 42.015747l-79.77954 0z" fill-rule="evenodd"/><path fill="#000000" d="m352.31528 329.52106l0 -8.40625l-1.453125 0l0 -1.265625l1.453125 0l0 -1.03125q0 -0.96875 0.171875 -1.453125q0.234375 -0.640625 0.828125 -1.03125q0.59375 -0.390625 1.671875 -0.390625q0.6875 0 1.53125 0.15625l-0.25 1.4375q-0.5 -0.09375 -0.953125 -0.09375q-0.75 0 -1.0625 0.328125q-0.3125 0.3125 -0.3125 1.1875l0 0.890625l1.890625 0l0 1.265625l-1.890625 0l0 8.40625l-1.625 0zm11.417694 -3.109375l1.6875 0.203125q-0.40625 1.484375 -1.484375 2.3125q-1.078125 0.8125 -2.765625 0.8125q-2.125 0 -3.375 -1.296875q-1.234375 -1.3125 -1.234375 -3.671875q0 -2.453125 1.25 -3.796875q1.265625 -1.34375 3.265625 -1.34375q1.9375 0 3.15625 1.328125q1.234375 1.3125 1.234375 3.703125q0 0.15625 0 0.4375l-7.21875 0q0.09375 1.59375 0.90625 2.453125q0.8125 0.84375 2.015625 0.84375q0.90625 0 1.546875 -0.46875q0.640625 -0.484375 1.015625 -1.515625zm-5.390625 -2.65625l5.40625 0q-0.109375 -1.21875 -0.625 -1.828125q-0.78125 -0.953125 -2.03125 -0.953125q-1.125 0 -1.90625 0.765625q-0.765625 0.75 -0.84375 2.015625zm15.453827 4.578125q-0.921875 0.765625 -1.765625 1.09375q-0.828125 0.3125 -1.796875 0.3125q-1.59375 0 -2.453125 -0.78125q-0.859375 -0.78125 -0.859375 -1.984375q0 -0.71875 0.328125 -1.296875q0.328125 -0.59375 0.84375 -0.9375q0.53125 -0.359375 1.1875 -0.546875q0.46875 -0.125 1.453125 -0.25q1.984375 -0.234375 2.921875 -0.5625q0.015625 -0.34375 0.015625 -0.421875q0 -1.0 -0.46875 -1.421875q-0.625 -0.546875 -1.875 -0.546875q-1.15625 0 -1.703125 0.40625q-0.546875 0.40625 -0.8125 1.421875l-1.609375 -0.21875q0.21875 -1.015625 0.71875 -1.640625q0.5 -0.640625 1.453125 -0.984375q0.953125 -0.34375 2.1875 -0.34375q1.25 0 2.015625 0.296875q0.78125 0.28125 1.140625 0.734375q0.375 0.4375 0.515625 1.109375q0.078125 0.421875 0.078125 1.515625l0 2.1875q0 2.28125 0.109375 2.890625q0.109375 0.59375 0.40625 1.15625l-1.703125 0q-0.265625 -0.515625 -0.328125 -1.1875zm-0.140625 -3.671875q-0.890625 0.375 -2.671875 0.625q-1.015625 0.140625 -1.4375 0.328125q-0.421875 0.1875 -0.65625 0.53125q-0.21875 0.34375 -0.21875 0.78125q0 0.65625 0.5 1.09375q0.5 0.4375 1.453125 0.4375q0.9375 0 1.671875 -0.40625q0.75 -0.421875 1.09375 -1.140625q0.265625 -0.5625 0.265625 -1.640625l0 -0.609375zm7.7819824 3.390625l0.234375 1.453125q-0.6875 0.140625 -1.234375 0.140625q-0.890625 0 -1.390625 -0.28125q-0.484375 -0.28125 -0.6875 -0.734375q-0.203125 -0.46875 -0.203125 -1.9375l0 -5.578125l-1.203125 0l0 -1.265625l1.203125 0l0 -2.390625l1.625 -0.984375l0 3.375l1.65625 0l0 1.265625l-1.65625 0l0 5.671875q0 0.6875 0.078125 0.890625q0.09375 0.203125 0.28125 0.328125q0.203125 0.109375 0.578125 0.109375q0.265625 0 0.71875 -0.0625zm7.9332886 1.46875l0 -1.421875q-1.125 1.640625 -3.0625 1.640625q-0.859375 0 -1.609375 -0.328125q-0.734375 -0.328125 -1.09375 -0.828125q-0.359375 -0.5 -0.5 -1.21875q-0.109375 -0.46875 -0.109375 -1.53125l0 -5.984375l1.640625 0l0 5.359375q0 1.28125 0.109375 1.734375q0.15625 0.640625 0.65625 1.015625q0.5 0.375 1.234375 0.375q0.734375 0 1.375 -0.375q0.65625 -0.390625 0.921875 -1.03125q0.265625 -0.65625 0.265625 -1.890625l0 -5.1875l1.640625 0l0 9.671875l-1.46875 0zm4.0319824 0l0 -9.671875l1.46875 0l0 1.46875q0.5625 -1.03125 1.03125 -1.359375q0.484375 -0.328125 1.0625 -0.328125q0.828125 0 1.6875 0.53125l-0.5625 1.515625q-0.609375 -0.359375 -1.203125 -0.359375q-0.546875 0 -0.96875 0.328125q-0.421875 0.328125 -0.609375 0.890625q-0.28125 0.875 -0.28125 1.921875l0 5.0625l-1.625 0zm12.853302 -3.109375l1.6875 0.203125q-0.40625 1.484375 -1.484375 2.3125q-1.078125 0.8125 -2.765625 0.8125q-2.125 0 -3.375 -1.296875q-1.234375 -1.3125 -1.234375 -3.671875q0 -2.453125 1.25 -3.796875q1.265625 -1.34375 3.265625 -1.34375q1.9375 0 3.15625 1.328125q1.234375 1.3125 1.234375 3.703125q0 0.15625 0 0.4375l-7.21875 0q0.09375 1.59375 0.90625 2.453125q0.8125 0.84375 2.015625 0.84375q0.90625 0 1.546875 -0.46875q0.640625 -0.484375 1.015625 -1.515625zm-5.390625 -2.65625l5.40625 0q-0.109375 -1.21875 -0.625 -1.828125q-0.78125 -0.953125 -2.03125 -0.953125q-1.125 0 -1.90625 0.765625q-0.765625 0.75 -0.84375 2.015625z" fill-rule="nonzero"/><path fill="#000000" fill-opacity="0.0" d="m683.06824 178.90027l79.77954 0l0 42.015747l-79.77954 0z" fill-rule="evenodd"/><path fill="#000000" d="m693.69324 205.82027l0 -8.40625l-1.453125 0l0 -1.265625l1.453125 0l0 -1.03125q0 -0.96875 0.171875 -1.453125q0.234375 -0.640625 0.828125 -1.03125q0.59375 -0.390625 1.671875 -0.390625q0.6875 0 1.53125 0.15625l-0.25 1.4375q-0.5 -0.09375 -0.953125 -0.09375q-0.75 0 -1.0625 0.328125q-0.3125 0.3125 -0.3125 1.1875l0 0.890625l1.890625 0l0 1.265625l-1.890625 0l0 8.40625l-1.625 0zm11.417664 -3.109375l1.6875 0.203125q-0.40625 1.484375 -1.484375 2.3125q-1.078125 0.8125 -2.765625 0.8125q-2.125 0 -3.375 -1.296875q-1.234375 -1.3125 -1.234375 -3.671875q0 -2.453125 1.25 -3.796875q1.265625 -1.34375 3.265625 -1.34375q1.9375 0 3.15625 1.328125q1.234375 1.3125 1.234375 3.703125q0 0.15625 0 0.4375l-7.21875 0q0.09375 1.59375 0.90625 2.453125q0.8125 0.84375 2.015625 0.84375q0.90625 0 1.546875 -0.46875q0.640625 -0.484375 1.015625 -1.515625zm-5.390625 -2.65625l5.40625 0q-0.109375 -1.21875 -0.625 -1.828125q-0.78125 -0.953125 -2.03125 -0.953125q-1.125 0 -1.90625 0.765625q-0.765625 0.75 -0.84375 2.015625zm15.453857 4.578125q-0.921875 0.765625 -1.765625 1.09375q-0.828125 0.3125 -1.796875 0.3125q-1.59375 0 -2.453125 -0.78125q-0.859375 -0.78125 -0.859375 -1.984375q0 -0.71875 0.328125 -1.296875q0.328125 -0.59375 0.84375 -0.9375q0.53125 -0.359375 1.1875 -0.546875q0.46875 -0.125 1.453125 -0.25q1.984375 -0.234375 2.921875 -0.5625q0.015625 -0.34375 0.015625 -0.421875q0 -1.0 -0.46875 -1.421875q-0.625 -0.546875 -1.875 -0.546875q-1.15625 0 -1.703125 0.40625q-0.546875 0.40625 -0.8125 1.421875l-1.609375 -0.21875q0.21875 -1.015625 0.71875 -1.640625q0.5 -0.640625 1.453125 -0.984375q0.953125 -0.34375 2.1875 -0.34375q1.25 0 2.015625 0.296875q0.78125 0.28125 1.140625 0.734375q0.375 0.4375 0.515625 1.109375q0.078125 0.421875 0.078125 1.515625l0 2.1875q0 2.28125 0.109375 2.890625q0.109375 0.59375 0.40625 1.15625l-1.703125 0q-0.265625 -0.515625 -0.328125 -1.1875zm-0.140625 -3.671875q-0.890625 0.375 -2.671875 0.625q-1.015625 0.140625 -1.4375 0.328125q-0.421875 0.1875 -0.65625 0.53125q-0.21875 0.34375 -0.21875 0.78125q0 0.65625 0.5 1.09375q0.5 0.4375 1.453125 0.4375q0.9375 0 1.671875 -0.40625q0.75 -0.421875 1.09375 -1.140625q0.265625 -0.5625 0.265625 -1.640625l0 -0.609375zm7.7819824 3.390625l0.234375 1.453125q-0.6875 0.140625 -1.234375 0.140625q-0.890625 0 -1.390625 -0.28125q-0.484375 -0.28125 -0.6875 -0.734375q-0.203125 -0.46875 -0.203125 -1.9375l0 -5.578125l-1.203125 0l0 -1.265625l1.203125 0l0 -2.390625l1.625 -0.984375l0 3.375l1.65625 0l0 1.265625l-1.65625 0l0 5.671875q0 0.6875 0.078125 0.890625q0.09375 0.203125 0.28125 0.328125q0.203125 0.109375 0.578125 0.109375q0.265625 0 0.71875 -0.0625zm7.9332886 1.46875l0 -1.421875q-1.125 1.640625 -3.0625 1.640625q-0.859375 0 -1.609375 -0.328125q-0.734375 -0.328125 -1.09375 -0.828125q-0.359375 -0.5 -0.5 -1.21875q-0.109375 -0.46875 -0.109375 -1.53125l0 -5.984375l1.640625 0l0 5.359375q0 1.28125 0.109375 1.734375q0.15625 0.640625 0.65625 1.015625q0.5 0.375 1.234375 0.375q0.734375 0 1.375 -0.375q0.65625 -0.390625 0.921875 -1.03125q0.265625 -0.65625 0.265625 -1.890625l0 -5.1875l1.640625 0l0 9.671875l-1.46875 0zm4.0319824 0l0 -9.671875l1.46875 0l0 1.46875q0.5625 -1.03125 1.03125 -1.359375q0.484375 -0.328125 1.0625 -0.328125q0.828125 0 1.6875 0.53125l-0.5625 1.515625q-0.609375 -0.359375 -1.203125 -0.359375q-0.546875 0 -0.96875 0.328125q-0.421875 0.328125 -0.609375 0.890625q-0.28125 0.875 -0.28125 1.921875l0 5.0625l-1.625 0zm12.8532715 -3.109375l1.6875 0.203125q-0.40625 1.484375 -1.484375 2.3125q-1.078125 0.8125 -2.765625 0.8125q-2.125 0 -3.375 -1.296875q-1.234375 -1.3125 -1.234375 -3.671875q0 -2.453125 1.25 -3.796875q1.265625 -1.34375 3.265625 -1.34375q1.9375 0 3.15625 1.328125q1.234375 1.3125 1.234375 3.703125q0 0.15625 0 0.4375l-7.21875 0q0.09375 1.59375 0.90625 2.453125q0.8125 0.84375 2.015625 0.84375q0.90625 0 1.546875 -0.46875q0.640625 -0.484375 1.015625 -1.515625zm-5.390625 -2.65625l5.40625 0q-0.109375 -1.21875 -0.625 -1.828125q-0.78125 -0.953125 -2.03125 -0.953125q-1.125 0 -1.90625 0.765625q-0.765625 0.75 -0.84375 2.015625z" fill-rule="nonzero"/></g></svg>